<svg xmlns="http://www.w3.org/2000/svg" xmlns:xlink="http://www.w3.org/1999/xlink" version="1.1" width="256" height="256" viewBox="0 0 256 256" xml:space="preserve">

<defs>
</defs>
<g style="stroke: none; stroke-width: 0; stroke-dasharray: none; stroke-linecap: butt; stroke-linejoin: miter; stroke-miterlimit: 10; fill: none; fill-rule: nonzero; opacity: 1;" transform="translate(1.4065934065934016 1.4065934065934016) scale(2.81 2.81)" >
	<path d="M 85.125 16.797 c 2.869 -2.868 7.139 -11.642 3.43 -15.352 c -3.711 -3.71 -12.483 0.562 -15.352 3.43 L 51.729 26.35 l -7.355 -1.555 c 1.783 -1.808 1.779 -4.728 -0.02 -6.528 l -1.432 -1.431 c -0.875 -0.875 -2.038 -1.357 -3.277 -1.357 c -1.238 0 -2.401 0.482 -3.276 1.357 l -5.174 5.174 L 9.219 17.365 c -1.46 -0.307 -2.959 0.137 -4.012 1.191 l -3.921 3.921 c -1.027 1.027 -1.479 2.492 -1.21 3.919 c 0.27 1.427 1.225 2.626 2.555 3.207 l 31.93 13.964 c -4.395 4.686 -8.365 10.15 -11.077 15.227 l -13.62 -2.626 c -1.239 -0.236 -2.507 0.151 -3.395 1.041 L 4.07 59.608 c -0.872 0.871 -1.266 2.116 -1.053 3.331 c 0.212 1.214 1.006 2.252 2.123 2.777 l 10.691 5.013 c 1.513 0.71 2.742 1.933 3.46 3.443 l 5.057 10.65 c 0.527 1.112 1.566 1.9 2.777 2.109 c 0.214 0.037 0.429 0.055 0.642 0.055 c 0.996 0 1.965 -0.394 2.68 -1.11 l 2.406 -2.406 c 0.894 -0.894 1.282 -2.168 1.038 -3.409 l -2.666 -13.555 c 5.071 -2.712 10.529 -6.677 15.209 -11.067 l 13.963 31.93 c 0.582 1.33 1.781 2.285 3.208 2.554 C 63.877 89.975 64.149 90 64.421 90 c 1.153 0 2.271 -0.455 3.103 -1.286 l 3.921 -3.921 c 1.055 -1.055 1.499 -2.555 1.191 -4.012 L 67.99 58.804 l 5.175 -5.174 c 1.804 -1.806 1.804 -4.744 -0.001 -6.552 l -1.432 -1.43 c -0.875 -0.876 -2.038 -1.358 -3.277 -1.358 c -1.226 0 -2.378 0.477 -3.251 1.337 l -1.554 -7.355 L 85.125 16.797 z M 39.198 19.665 c 0.161 -0.161 0.349 -0.185 0.447 -0.185 c 0.098 0 0.286 0.024 0.447 0.186 l 1.432 1.431 c 0.247 0.247 0.247 0.648 0 0.895 l -1.817 1.818 l -3.841 -0.812 L 39.198 19.665 z M 4.008 25.653 c -0.018 -0.092 -0.013 -0.228 0.107 -0.348 l 3.921 -3.921 c 0.094 -0.093 0.226 -0.132 0.356 -0.105 l 23.063 4.875 c 0.003 0.001 0.007 0.002 0.01 0.002 l 8.503 1.797 c 0.003 0.001 0.006 0.001 0.008 0.002 l 8.377 1.771 L 37.566 40.513 L 4.234 25.937 C 4.079 25.869 4.025 25.745 4.008 25.653 z M 27.832 82.833 l -4.927 -10.377 c -1.114 -2.347 -3.024 -4.247 -5.376 -5.35 L 7.114 62.222 l 2.105 -2.105 l 17.329 3.34 l 3.396 17.263 L 27.832 82.833 z M 30.213 61.364 c -0.157 -0.8 -0.784 -1.424 -1.584 -1.578 l -1.031 -0.199 c 2.942 -5.203 7.225 -10.758 11.817 -15.266 c 0.002 -0.002 0.004 -0.005 0.006 -0.008 c 0.002 -0.002 0.005 -0.004 0.007 -0.006 L 53.766 29.97 c 0.002 -0.002 0.003 -0.003 0.005 -0.005 L 76.032 7.705 c 2.454 -2.454 8.521 -4.6 9.694 -3.43 c 1.17 1.171 -0.977 7.241 -3.43 9.694 L 60.033 36.231 c -0.001 0.001 -0.001 0.001 -0.002 0.002 L 45.693 50.571 c -0.002 0.002 -0.003 0.004 -0.004 0.005 c -0.003 0.003 -0.006 0.005 -0.009 0.007 c -4.507 4.592 -10.061 8.875 -15.263 11.817 L 30.213 61.364 z M 68.008 48.476 c 0.161 -0.161 0.35 -0.186 0.447 -0.186 c 0.098 0 0.286 0.024 0.447 0.187 l 1.432 1.43 c 0.247 0.247 0.247 0.65 0.001 0.896 l -3.333 3.332 l -0.812 -3.842 L 68.008 48.476 z M 68.721 81.61 c 0.027 0.129 -0.013 0.261 -0.105 0.355 l -3.921 3.92 c -0.119 0.121 -0.256 0.127 -0.348 0.107 c -0.093 -0.017 -0.217 -0.07 -0.285 -0.227 L 49.487 52.434 l 10.787 -10.787 L 68.721 81.61 z" style="stroke: none; stroke-width: 1; stroke-dasharray: none; stroke-linecap: butt; stroke-linejoin: miter; stroke-miterlimit: 10; fill: rgb(236,243,240); fill-rule: nonzero; opacity: 1;" transform=" matrix(1 0 0 1 0 0) " stroke-linecap="round" />
</g>
</svg>